<?xml version="1.0" encoding="utf-8"?>
<!-- Generator: Adobe Illustrator 19.2.1, SVG Export Plug-In . SVG Version: 6.00 Build 0)  -->
<svg version="1.1" id="Layer_1" xmlns="http://www.w3.org/2000/svg" xmlns:xlink="http://www.w3.org/1999/xlink" x="0px" y="0px"
	 viewBox="0 0 508.3 79.3" style="enable-background:new 0 0 508.3 79.3;" xml:space="preserve">
<style type="text/css">
	.st0{fill:#E8445F;}
	.st1{fill:#FFFFFF;}
	.st2{fill:#C8445F;}
</style>
<g>
	<path class="st2" d="M273.5,33.1c-2.4,2.9-5.3,5.2-8.8,6.8c2.5,3.1,5.4,5.8,8.8,7.9c3.3-2.1,6.3-4.8,8.8-7.9
		C278.9,38.4,275.9,36,273.5,33.1z"/>
	<path class="st2" d="M268.1,20.1c-9.1,2.2-16.1,9.6-17.5,18.9c1.2,0.2,2.5,0.3,3.8,0.3c7.1,0,13.4-3.4,17.4-8.7
		C269.8,27.5,268.5,24,268.1,20.1z"/>
	<path class="st2" d="M262,41c-2.4,0.8-4.9,1.2-7.6,1.2c-0.2,0-0.4,0-0.5,0c0,0.2,0,0.3,0,0.5c0,4,1.2,7.7,3.2,10.8
		c4.9-0.4,9.6-1.8,13.7-4C267.4,47.1,264.5,44.3,262,41z"/>
	<g>
		<path class="st2" d="M292.7,42.2c-2.7,0-5.2-0.4-7.6-1.2c-2.5,3.2-5.4,6.1-8.8,8.4c4.2,2.2,8.8,3.6,13.7,4c2-3.1,3.2-6.8,3.2-10.8
			c0-0.2,0-0.3,0-0.5C293,42.2,292.9,42.2,292.7,42.2z"/>
	</g>
	<g>
		<path class="st2" d="M273.5,51.2c-3.4,2-7.2,3.5-11.2,4.3c2.7,5.3,6.6,10,11.2,13.7c4.7-3.7,8.5-8.4,11.2-13.7
			C280.7,54.7,277,53.2,273.5,51.2z"/>
	</g>
	<g>
		<path class="st2" d="M296.5,39c-1.8-11.1-11.3-19.6-22.9-19.6c-0.9,0-1.7,0.1-2.6,0.1c1,11.1,10.4,19.8,21.7,19.8
			C294,39.4,295.2,39.3,296.5,39z"/>
		<path class="st2" d="M271,19.6c0,0-0.3-3.3,0.5-14.6c0.1,0.1,4,0.1,4,0.1s-2.6,14.1,1.1,14.6"/>
	</g>
</g>
<g>
	<g>
		<g>
			<path class="st2" d="M316.7,49.4V38.3h-1.9v-2.9h1.9v-0.9c0-1.8,0.4-3.3,1.3-4.4c0.9-1.1,2.1-1.6,3.6-1.6c1.2,0,2.4,0.3,3.6,0.9
				l-0.8,2.8c-0.3-0.1-0.6-0.3-1-0.4c-0.4-0.1-0.7-0.2-1.1-0.2c-1.3,0-2,0.9-2,2.6v1h3.6v2.9h-3.6v11.1H316.7z"/>
			<path class="st2" d="M330,49.7c-0.7,0-1.4-0.1-2-0.4c-0.6-0.2-1.2-0.6-1.6-1c-0.4-0.4-0.8-0.9-1.1-1.5c-0.3-0.6-0.4-1.2-0.4-1.9
				c0-0.7,0.2-1.3,0.5-1.9s0.7-1.1,1.3-1.5c0.6-0.4,1.2-0.7,2-1c0.8-0.2,1.6-0.4,2.5-0.4c0.7,0,1.3,0.1,1.9,0.2
				c0.6,0.1,1.2,0.3,1.7,0.5v-0.8c0-1-0.3-1.7-0.8-2.2s-1.4-0.8-2.5-0.8c-0.8,0-1.6,0.1-2.3,0.4c-0.7,0.3-1.5,0.7-2.3,1.2l-1.2-2.4
				c1.9-1.3,3.9-1.9,6.1-1.9c2.1,0,3.8,0.5,4.9,1.6c1.2,1,1.8,2.5,1.8,4.5v4.6c0,0.4,0.1,0.7,0.2,0.8s0.4,0.3,0.7,0.3v3.2
				c-0.6,0.1-1.2,0.2-1.7,0.2c-0.7,0-1.3-0.2-1.6-0.5c-0.4-0.3-0.6-0.7-0.7-1.3l-0.1-0.8c-0.7,0.9-1.5,1.5-2.4,2
				C332.1,49.5,331.1,49.7,330,49.7z M331.1,46.9c0.6,0,1.2-0.1,1.8-0.3c0.6-0.2,1-0.5,1.3-0.9c0.4-0.3,0.6-0.7,0.6-1.1v-1.7
				c-0.4-0.2-0.9-0.3-1.5-0.4c-0.5-0.1-1-0.2-1.5-0.2c-1,0-1.8,0.2-2.4,0.7c-0.6,0.4-0.9,1-0.9,1.7c0,0.6,0.2,1.2,0.7,1.6
				S330.4,46.9,331.1,46.9z"/>
			<path class="st2" d="M341.2,42.1c0-1,0.2-2,0.5-2.9c0.4-0.9,0.9-1.7,1.5-2.4c0.7-0.7,1.5-1.2,2.4-1.7c1-0.4,2-0.6,3.2-0.6
				c1.6,0,3,0.3,4.1,1c1.1,0.7,2,1.6,2.5,2.7l-3.7,1.1c-0.3-0.5-0.7-1-1.3-1.2c-0.5-0.3-1.1-0.4-1.7-0.4c-0.5,0-1,0.1-1.5,0.3
				c-0.5,0.2-0.9,0.5-1.2,0.9c-0.3,0.4-0.6,0.8-0.8,1.4c-0.2,0.5-0.3,1.1-0.3,1.8c0,0.7,0.1,1.3,0.3,1.8c0.2,0.5,0.5,1,0.8,1.4
				c0.3,0.4,0.8,0.7,1.2,0.9c0.5,0.2,1,0.3,1.5,0.3c0.7,0,1.3-0.2,1.9-0.5c0.6-0.3,1-0.7,1.2-1.2l3.7,1.1c-0.5,1.1-1.3,2-2.5,2.8
				s-2.6,1.1-4.2,1.1c-1.2,0-2.3-0.2-3.2-0.6c-1-0.4-1.8-1-2.4-1.7s-1.2-1.5-1.6-2.4S341.2,43.1,341.2,42.1z"/>
			<path class="st2" d="M364.6,49.7c-1.2,0-2.2-0.2-3.2-0.6s-1.8-0.9-2.4-1.6s-1.2-1.5-1.6-2.4s-0.5-1.9-0.5-2.9c0-1,0.2-2,0.5-3
				c0.4-0.9,0.9-1.7,1.5-2.4c0.7-0.7,1.5-1.3,2.5-1.7c1-0.4,2-0.6,3.2-0.6s2.3,0.2,3.2,0.6c0.9,0.4,1.7,1,2.4,1.7
				c0.7,0.7,1.2,1.5,1.5,2.4c0.3,0.9,0.5,1.9,0.5,2.9c0,0.2,0,0.5,0,0.7c0,0.2,0,0.4-0.1,0.6h-11.4c0.1,0.6,0.2,1.1,0.4,1.5
				c0.2,0.4,0.5,0.8,0.9,1.2c0.4,0.3,0.8,0.6,1.2,0.7s0.9,0.3,1.4,0.3c0.7,0,1.5-0.2,2.1-0.5s1.1-0.8,1.4-1.4l3.2,0.9
				c-0.5,1.1-1.4,2-2.6,2.8S366.3,49.7,364.6,49.7z M368.4,40.8c-0.1-1.1-0.5-2-1.2-2.7c-0.7-0.7-1.6-1-2.6-1c-0.5,0-1,0.1-1.4,0.3
				c-0.4,0.2-0.8,0.4-1.2,0.7c-0.3,0.3-0.6,0.7-0.8,1.2c-0.2,0.4-0.3,0.9-0.4,1.5H368.4z"/>
			<path class="st2" d="M388.3,49.4h-3.8v-8.3c0-1.2-0.2-2-0.6-2.6c-0.4-0.5-1-0.8-1.7-0.8c-0.4,0-0.8,0.1-1.2,0.2
				c-0.4,0.1-0.8,0.4-1.1,0.6c-0.3,0.3-0.7,0.6-0.9,1c-0.3,0.4-0.5,0.8-0.6,1.2v8.6h-3.8V34.7h3.4v2.7c0.5-0.9,1.3-1.7,2.4-2.2
				c1-0.5,2.2-0.8,3.5-0.8c0.9,0,1.7,0.2,2.2,0.5c0.6,0.3,1,0.8,1.3,1.3c0.3,0.5,0.5,1.2,0.7,1.9c0.1,0.7,0.2,1.4,0.2,2.1V49.4z"/>
			<path class="st2" d="M397.6,49.7c-1,0-1.9-0.2-2.8-0.6c-0.9-0.4-1.6-0.9-2.2-1.6c-0.6-0.7-1.1-1.5-1.4-2.4
				c-0.3-0.9-0.5-1.9-0.5-3s0.2-2.1,0.5-3c0.3-0.9,0.8-1.7,1.4-2.4c0.6-0.7,1.3-1.2,2.1-1.6c0.8-0.4,1.7-0.6,2.6-0.6
				c1.1,0,2.1,0.3,2.9,0.8c0.9,0.5,1.5,1.2,2,2v-8.4h3.8v16.2c0,0.4,0.1,0.7,0.2,0.8s0.4,0.3,0.7,0.3v3.2c-0.7,0.1-1.2,0.2-1.6,0.2
				c-0.7,0-1.2-0.2-1.7-0.5c-0.4-0.3-0.7-0.8-0.7-1.3l-0.1-0.9c-0.5,0.9-1.3,1.6-2.2,2.1C399.6,49.4,398.7,49.7,397.6,49.7z
				 M398.6,46.5c0.4,0,0.7-0.1,1.1-0.2c0.4-0.1,0.7-0.3,1-0.5c0.3-0.2,0.6-0.5,0.9-0.8c0.3-0.3,0.4-0.6,0.6-1v-3.5
				c-0.2-0.4-0.4-0.8-0.6-1.1s-0.6-0.6-0.9-0.9c-0.3-0.3-0.7-0.5-1.1-0.6c-0.4-0.1-0.8-0.2-1.1-0.2c-0.6,0-1.1,0.1-1.6,0.4
				c-0.5,0.2-0.9,0.6-1.2,1s-0.6,0.9-0.8,1.4c-0.2,0.5-0.3,1.1-0.3,1.7c0,0.6,0.1,1.2,0.3,1.7s0.5,1,0.8,1.4s0.8,0.7,1.3,0.9
				C397.5,46.4,398,46.5,398.6,46.5z"/>
			<path class="st2" d="M416.5,49.7c-1.2,0-2.3-0.2-3.2-0.6c-1-0.4-1.8-1-2.4-1.7s-1.2-1.5-1.5-2.4c-0.4-0.9-0.5-1.9-0.5-2.9
				c0-1,0.2-2,0.5-2.9c0.4-0.9,0.9-1.7,1.5-2.4s1.5-1.3,2.4-1.7c1-0.4,2-0.6,3.2-0.6c1.2,0,2.3,0.2,3.2,0.6c0.9,0.4,1.8,1,2.4,1.7
				s1.2,1.5,1.5,2.4c0.4,0.9,0.5,1.9,0.5,2.9c0,1-0.2,2-0.5,2.9c-0.4,0.9-0.9,1.7-1.5,2.4s-1.5,1.3-2.4,1.7
				C418.7,49.5,417.6,49.7,416.5,49.7z M412.6,42.1c0,0.7,0.1,1.2,0.3,1.8c0.2,0.5,0.5,1,0.8,1.4c0.3,0.4,0.8,0.7,1.2,0.9
				c0.5,0.2,1,0.3,1.5,0.3c0.5,0,1-0.1,1.5-0.3c0.5-0.2,0.9-0.5,1.2-0.9c0.3-0.4,0.6-0.9,0.8-1.4s0.3-1.1,0.3-1.8
				c0-0.6-0.1-1.2-0.3-1.8c-0.2-0.5-0.5-1-0.8-1.4c-0.3-0.4-0.8-0.7-1.2-0.9c-0.5-0.2-1-0.3-1.5-0.3c-0.5,0-1,0.1-1.5,0.3
				s-0.9,0.5-1.2,0.9c-0.3,0.4-0.6,0.9-0.8,1.4C412.7,40.9,412.6,41.4,412.6,42.1z"/>
			<path class="st2" d="M442.2,49.7c-1.2,0-2.2-0.3-3-0.8c-0.9-0.5-1.5-1.2-2-2.1v8.6h-3.8V34.7h3.3v2.5c0.5-0.9,1.2-1.5,2.1-2
				c0.9-0.5,1.9-0.7,3-0.7c1,0,1.9,0.2,2.8,0.6c0.8,0.4,1.6,0.9,2.2,1.6c0.6,0.7,1.1,1.5,1.4,2.4c0.3,0.9,0.5,1.9,0.5,2.9
				c0,1.1-0.2,2.1-0.5,3s-0.8,1.7-1.3,2.4c-0.6,0.7-1.2,1.2-2,1.6C444,49.5,443.1,49.7,442.2,49.7z M441,46.5c0.6,0,1.1-0.1,1.6-0.4
				c0.5-0.2,0.9-0.6,1.2-1s0.6-0.9,0.8-1.4c0.2-0.5,0.3-1.1,0.3-1.7c0-0.6-0.1-1.2-0.3-1.7c-0.2-0.5-0.5-1-0.9-1.4
				c-0.4-0.4-0.8-0.7-1.3-0.9s-1-0.3-1.6-0.3c-0.4,0-0.7,0.1-1.1,0.2s-0.7,0.3-1,0.5c-0.3,0.2-0.6,0.5-0.9,0.8
				c-0.3,0.3-0.4,0.6-0.6,1v3.5c0.3,0.8,0.9,1.5,1.5,2.1C439.4,46.2,440.1,46.5,441,46.5z"/>
			<path class="st2" d="M451.2,32.6v-3.7h3.8v3.7H451.2z M451.2,49.4V34.7h3.8v14.7H451.2z"/>
			<path class="st2" d="M472,49.4h-3.8v-8.3c0-1.2-0.2-2-0.6-2.6c-0.4-0.5-1-0.8-1.7-0.8c-0.4,0-0.8,0.1-1.2,0.2
				c-0.4,0.1-0.8,0.4-1.1,0.6c-0.3,0.3-0.7,0.6-0.9,1c-0.3,0.4-0.5,0.8-0.6,1.2v8.6h-3.8V34.7h3.4v2.7c0.5-0.9,1.3-1.7,2.4-2.2
				c1-0.5,2.2-0.8,3.5-0.8c0.9,0,1.7,0.2,2.2,0.5c0.6,0.3,1,0.8,1.3,1.3c0.3,0.5,0.5,1.2,0.7,1.9c0.1,0.7,0.2,1.4,0.2,2.1V49.4z
				 M467.3,32.5c-0.4,0-0.8-0.1-1.1-0.2s-0.6-0.3-0.9-0.4c-0.3-0.2-0.5-0.3-0.8-0.4c-0.3-0.1-0.6-0.2-0.9-0.2
				c-0.3,0-0.6,0.1-0.7,0.2c-0.2,0.1-0.3,0.3-0.4,0.4c-0.1,0.2-0.2,0.3-0.2,0.5c0,0.1,0,0.2,0,0.2h-2.1c0-0.2,0.1-0.5,0.2-0.9
				c0.1-0.4,0.3-0.8,0.5-1.2s0.6-0.8,1-1.1c0.4-0.3,0.9-0.5,1.6-0.5c0.4,0,0.8,0.1,1.1,0.2c0.3,0.1,0.6,0.3,0.9,0.4
				c0.3,0.2,0.5,0.3,0.8,0.4c0.3,0.1,0.6,0.2,0.9,0.2s0.6-0.1,0.8-0.2c0.2-0.1,0.3-0.3,0.4-0.4c0.1-0.2,0.2-0.3,0.2-0.5s0-0.2,0-0.3
				h2.1c0,0.1-0.1,0.4-0.2,0.8c-0.1,0.4-0.3,0.8-0.6,1.2s-0.6,0.8-1.1,1.1C468.5,32.3,467.9,32.5,467.3,32.5z"/>
			<path class="st2" d="M479.3,49.7c-0.7,0-1.4-0.1-2-0.4c-0.6-0.2-1.2-0.6-1.6-1c-0.4-0.4-0.8-0.9-1.1-1.5
				c-0.3-0.6-0.4-1.2-0.4-1.9c0-0.7,0.2-1.3,0.5-1.9s0.7-1.1,1.3-1.5c0.6-0.4,1.2-0.7,2-1c0.8-0.2,1.6-0.4,2.5-0.4
				c0.7,0,1.3,0.1,1.9,0.2c0.6,0.1,1.2,0.3,1.7,0.5v-0.8c0-1-0.3-1.7-0.8-2.2s-1.4-0.8-2.5-0.8c-0.8,0-1.6,0.1-2.3,0.4
				c-0.7,0.3-1.5,0.7-2.3,1.2l-1.2-2.4c1.9-1.3,3.9-1.9,6.1-1.9c2.1,0,3.8,0.5,4.9,1.6c1.2,1,1.8,2.5,1.8,4.5v4.6
				c0,0.4,0.1,0.7,0.2,0.8s0.4,0.3,0.7,0.3v3.2c-0.6,0.1-1.2,0.2-1.7,0.2c-0.7,0-1.3-0.2-1.6-0.5c-0.4-0.3-0.6-0.7-0.7-1.3l-0.1-0.8
				c-0.7,0.9-1.5,1.5-2.4,2C481.4,49.5,480.4,49.7,479.3,49.7z M480.4,46.9c0.6,0,1.2-0.1,1.8-0.3c0.6-0.2,1-0.5,1.3-0.9
				c0.4-0.3,0.6-0.7,0.6-1.1v-1.7c-0.4-0.2-0.9-0.3-1.5-0.4c-0.5-0.1-1-0.2-1.5-0.2c-1,0-1.8,0.2-2.4,0.7c-0.6,0.4-0.9,1-0.9,1.7
				c0,0.6,0.2,1.2,0.7,1.6S479.7,46.9,480.4,46.9z"/>
		</g>
		<g>
			<g>
				<g>
					<g>
						<path class="st2" d="M135.8,34.5h1l6.8,16h-1.2l-2.2-5.3h-7.6l-2.2,5.3H129L135.8,34.5z M139.8,44.3l-3.5-8.4l-3.6,8.4H139.8z
							"/>
						<path class="st2" d="M146,50.5v-16h1.1v15h9.6v1H146z"/>
						<path class="st2" d="M159.1,50.5v-16h1.1v15h9.6v1H159.1z"/>
						<path class="st2" d="M172.2,50.5v-16h1.1v16H172.2z"/>
						<path class="st2" d="M182.5,34.5h1l6.8,16h-1.2l-2.2-5.3h-7.6l-2.2,5.3h-1.2L182.5,34.5z M186.5,44.3l-3.5-8.4l-3.6,8.4H186.5
							z"/>
						<path class="st2" d="M193.9,36.7v13.8h-1.1v-16h0.9l11.2,14.1V34.5h1.1v16h-1.1L193.9,36.7z"/>
						<path class="st2" d="M209,42.4c0-1,0.2-1.9,0.5-2.9c0.3-1,0.8-1.8,1.5-2.6c0.6-0.8,1.4-1.4,2.4-1.8c0.9-0.5,2-0.7,3.2-0.7
							c1.4,0,2.6,0.3,3.6,1c1,0.7,1.8,1.5,2.3,2.5l-0.9,0.5c-0.3-0.6-0.6-1-1-1.4c-0.4-0.4-0.8-0.7-1.2-0.9
							c-0.4-0.2-0.9-0.4-1.4-0.5c-0.5-0.1-1-0.2-1.4-0.2c-1,0-1.9,0.2-2.7,0.6c-0.8,0.4-1.4,0.9-2,1.6c-0.5,0.7-1,1.4-1.2,2.2
							c-0.3,0.8-0.4,1.7-0.4,2.5c0,0.9,0.2,1.8,0.5,2.7c0.3,0.9,0.8,1.6,1.4,2.3c0.6,0.7,1.2,1.2,2,1.6c0.8,0.4,1.6,0.6,2.5,0.6
							c0.5,0,1-0.1,1.5-0.2c0.5-0.1,1-0.3,1.5-0.6c0.5-0.3,0.9-0.6,1.3-1c0.4-0.4,0.7-0.9,1-1.4l1,0.5c-0.3,0.6-0.6,1.1-1.1,1.6
							c-0.5,0.5-1,0.9-1.6,1.2c-0.6,0.3-1.2,0.6-1.8,0.7c-0.6,0.2-1.3,0.2-1.9,0.2c-1.1,0-2.1-0.2-3-0.7c-0.9-0.5-1.7-1.1-2.4-1.9
							c-0.7-0.8-1.2-1.7-1.5-2.6C209.2,44.4,209,43.4,209,42.4z"/>
						<path class="st2" d="M236.3,49.5v1h-10.7v-16h10.5v1h-9.3v6.3h8.1v1h-8.1v6.6H236.3z"/>
					</g>
				</g>
			</g>
			<path class="st2" d="M88.7,51.1H80c-0.8,0-1.5-0.7-1.5-1.5c0-0.8,0.7-1.5,1.5-1.5h8.7c0.8,0,1.5,0.7,1.5,1.5
				C90.2,50.4,89.6,51.1,88.7,51.1z"/>
			<path class="st2" d="M88.7,44.3H80c-0.8,0-1.5-0.7-1.5-1.5c0-0.8,0.7-1.5,1.5-1.5h8.7c0.8,0,1.5,0.7,1.5,1.5
				C90.2,43.7,89.6,44.3,88.7,44.3z"/>
			<path class="st2" d="M104.1,46.7c-1,0.9-2.2,1.4-3.5,1.4c-2.9,0-5.3-2.4-5.3-5.3c0-2.9,2.4-5.3,5.3-5.3c1.2,0,2.4,0.4,3.4,1.2
				c0.6,0.5,1.6,0.4,2.1-0.2c0.5-0.6,0.5-1.6-0.2-2.1c-1.5-1.2-3.4-1.9-5.3-1.9c-4.6,0-8.3,3.7-8.3,8.3s3.7,8.3,8.3,8.3
				c2.1,0,4-0.8,5.5-2.1c0.6-0.6,0.7-1.5,0.1-2.1C105.7,46.2,104.7,46.2,104.1,46.7z"/>
			<path class="st2" d="M25.4,34.5c-0.8,0-1.5,0.7-1.5,1.5v13.5c0,0.8,0.7,1.5,1.5,1.5c0.8,0,1.5-0.7,1.5-1.5V36.1
				C26.9,35.2,26.2,34.5,25.4,34.5z"/>
			<path class="st2" d="M20,34.7c-0.8-0.4-1.7,0-2,0.7l-4.8,10.5L8.3,35.4c-0.3-0.8-1.2-1.1-2-0.7c-0.8,0.3-1.1,1.2-0.7,2l6.2,13.5
				c0,0,0,0,0,0c0.1,0.1,0.1,0.2,0.2,0.3c0,0,0,0,0,0c0.1,0.1,0.2,0.2,0.3,0.2c0,0,0.1,0,0.1,0.1c0,0,0.1,0,0.1,0.1c0,0,0.1,0,0.1,0
				c0,0,0.1,0,0.1,0c0.1,0,0.3,0.1,0.4,0.1l0,0l0,0c0.1,0,0.3,0,0.4-0.1c0,0,0.1,0,0.1,0c0,0,0.1,0,0.1,0c0,0,0.1,0,0.1-0.1
				c0,0,0.1,0,0.1-0.1c0.1-0.1,0.2-0.2,0.3-0.2c0,0,0,0,0,0c0.1-0.1,0.1-0.2,0.2-0.3c0,0,0,0,0,0l6.2-13.5
				C21.1,35.9,20.7,35,20,34.7z"/>
			<path class="st2" d="M75.4,34.5H64.8c-0.8,0-1.5,0.7-1.5,1.5s0.7,1.5,1.5,1.5h3.8v12c0,0.8,0.7,1.5,1.5,1.5s1.5-0.7,1.5-1.5v-12
				h3.8c0.8,0,1.5-0.7,1.5-1.5S76.2,34.5,75.4,34.5z"/>
			<path class="st2" d="M88.7,34.6H80c-0.8,0-1.5,0.7-1.5,1.5c0,0.8,0.7,1.5,1.5,1.5h8.7c0.8,0,1.5-0.7,1.5-1.5
				C90.2,35.2,89.6,34.6,88.7,34.6z"/>
			<path class="st2" d="M121,34.5c-0.8,0-1.5,0.7-1.5,1.5v5.2h-7.6v-5.2c0-0.8-0.7-1.5-1.5-1.5s-1.5,0.7-1.5,1.5v13.5
				c0,0.8,0.7,1.5,1.5,1.5s1.5-0.7,1.5-1.5v-5.2h7.6v5.2c0,0.8,0.7,1.5,1.5,1.5c0.8,0,1.5-0.7,1.5-1.5V36.1
				C122.6,35.2,121.9,34.5,121,34.5z"/>
			<path class="st2" d="M43.7,43c0-0.1,0-0.2,0-0.3c0-0.2-0.1-0.4-0.2-0.5c0,0,0,0,0,0c0-0.1-0.1-0.1-0.1-0.1c0,0,0-0.1-0.1-0.1
				c0,0-0.1,0-0.1-0.1c0,0-0.1-0.1-0.1-0.1c0,0,0,0,0,0c-0.2-0.1-0.3-0.2-0.5-0.2c-0.1,0-0.2,0-0.3,0H37c-0.8,0-1.5,0.7-1.5,1.5
				c0,0.8,0.7,1.5,1.5,1.5h3.7v2.8c-0.9,0.6-1.9,1-3,1c-2.9,0-5.3-2.4-5.3-5.3c0-2.9,2.4-5.3,5.3-5.3c1.2,0,2.4,0.4,3.4,1.2
				c0.6,0.5,1.6,0.4,2.1-0.2c0.5-0.6,0.4-1.6-0.2-2.1c-1.5-1.2-3.4-1.9-5.3-1.9c-4.6,0-8.3,3.7-8.3,8.3c0,4.6,3.7,8.3,8.3,8.3
				c2.1,0,4-0.8,5.5-2.1c0.3-0.3,0.5-0.7,0.5-1.1c0,0,0,0,0,0V43z"/>
			<path class="st2" d="M62.4,42.8c0-2.5-1.1-4.8-2.9-6.3c0,0,0,0,0,0c0,0-0.1-0.1-0.1-0.1c-0.1-0.1-0.2-0.2-0.3-0.2
				c-0.1,0-0.1-0.1-0.2-0.1c-0.1-0.1-0.3-0.2-0.4-0.3c-0.1,0-0.1-0.1-0.2-0.1c-0.2-0.1-0.3-0.2-0.5-0.3c0,0-0.1,0-0.1,0
				c-0.4-0.2-0.8-0.3-1.3-0.5c0,0,0,0,0,0c-0.2-0.1-0.4-0.1-0.7-0.1c0,0,0,0-0.1,0c-0.2,0-0.4-0.1-0.7-0.1c0,0-0.1,0-0.1,0
				c-0.2,0-0.4,0-0.7,0c-0.2,0-0.5,0-0.7,0c0,0,0,0-0.1,0c-0.2,0-0.5,0.1-0.7,0.1c0,0-0.1,0-0.1,0c-0.2,0-0.4,0.1-0.6,0.1
				c0,0-0.1,0-0.1,0c-0.2,0.1-0.4,0.1-0.6,0.2c0,0-0.1,0-0.1,0.1c-0.2,0.1-0.4,0.2-0.6,0.2c-0.1,0-0.1,0.1-0.2,0.1
				c-0.2,0.1-0.3,0.2-0.5,0.3c-0.1,0-0.1,0.1-0.2,0.1c-0.1,0.1-0.3,0.2-0.4,0.3c-0.1,0.1-0.2,0.1-0.3,0.2c-0.1,0.1-0.2,0.2-0.3,0.3
				c0,0-0.1,0.1-0.1,0.1c0,0,0,0,0,0c-1.7,1.5-2.7,3.7-2.7,6.1c0,2.5,1.1,4.8,2.9,6.3c0,0,0,0,0,0c0,0,0.1,0.1,0.1,0.1
				c0.1,0.1,0.2,0.2,0.3,0.2c0.1,0,0.1,0.1,0.2,0.1c0.1,0.1,0.3,0.2,0.4,0.3C50,50,50,50,50.1,50c0.2,0.1,0.3,0.2,0.5,0.3
				c0,0,0.1,0,0.1,0c0.4,0.2,0.8,0.3,1.3,0.5c0,0,0,0,0,0c0.2,0.1,0.4,0.1,0.7,0.1c0,0,0,0,0.1,0c0.2,0,0.4,0.1,0.7,0.1
				c0,0,0.1,0,0.1,0c0.2,0,0.4,0,0.7,0c0.2,0,0.5,0,0.7,0c0,0,0,0,0.1,0c0.2,0,0.5-0.1,0.7-0.1c0,0,0.1,0,0.1,0
				c0.2,0,0.4-0.1,0.6-0.1c0,0,0.1,0,0.1,0c0.2-0.1,0.4-0.1,0.6-0.2c0,0,0.1,0,0.1-0.1c0.2-0.1,0.4-0.2,0.6-0.2
				c0.1,0,0.1-0.1,0.2-0.1c0.2-0.1,0.3-0.2,0.5-0.3c0.1,0,0.1-0.1,0.2-0.1c0.1-0.1,0.3-0.2,0.4-0.3c0.1-0.1,0.2-0.1,0.3-0.2
				c0.1-0.1,0.2-0.2,0.3-0.3c0,0,0.1-0.1,0.1-0.1c0,0,0,0,0,0C61.4,47.4,62.4,45.2,62.4,42.8z M57.4,46.9c-0.1,0.1-0.2,0.1-0.3,0.2
				c0,0-0.1,0.1-0.1,0.1c-0.1,0.1-0.2,0.1-0.3,0.2c0,0-0.1,0.1-0.1,0.1c-0.1,0-0.2,0.1-0.3,0.1c-0.1,0-0.1,0.1-0.2,0.1
				c-0.1,0-0.2,0.1-0.3,0.1c-0.1,0-0.1,0-0.2,0.1c-0.1,0-0.2,0.1-0.3,0.1c-0.1,0-0.1,0-0.2,0c-0.1,0-0.2,0-0.3,0c-0.1,0-0.1,0-0.2,0
				c-0.2,0-0.3,0-0.5,0c-0.2,0-0.3,0-0.5,0c-0.1,0-0.1,0-0.2,0c-0.1,0-0.2,0-0.3,0c-0.1,0-0.2,0-0.2,0c-0.1,0-0.2,0-0.2-0.1
				c-0.1,0-0.1,0-0.2-0.1c-0.1,0-0.2-0.1-0.2-0.1c-0.1,0-0.1-0.1-0.2-0.1c-0.1,0-0.2-0.1-0.3-0.1c-0.1,0-0.1-0.1-0.2-0.1
				c-0.1-0.1-0.2-0.1-0.3-0.2c0,0-0.1,0-0.1-0.1c-1.4-0.9-2.3-2.5-2.3-4.3c0-1.6,0.7-3,1.9-4c0,0,0.1-0.1,0.1-0.1
				c0.1-0.1,0.2-0.1,0.3-0.2c0,0,0.1-0.1,0.1-0.1c0.1-0.1,0.2-0.1,0.3-0.2c0,0,0.1-0.1,0.1-0.1c0.1,0,0.2-0.1,0.3-0.1
				c0.1,0,0.1-0.1,0.2-0.1c0.1,0,0.2-0.1,0.3-0.1c0.1,0,0.1,0,0.2-0.1c0.1,0,0.2-0.1,0.3-0.1c0.1,0,0.1,0,0.2,0c0.1,0,0.2,0,0.3,0
				c0.1,0,0.1,0,0.2,0c0.2,0,0.3,0,0.5,0c0.2,0,0.3,0,0.5,0c0.1,0,0.1,0,0.2,0c0.1,0,0.2,0,0.3,0c0.1,0,0.2,0,0.2,0
				c0.1,0,0.2,0,0.2,0.1c0.1,0,0.1,0,0.2,0.1c0.1,0,0.2,0.1,0.2,0.1c0.1,0,0.1,0.1,0.2,0.1c0.1,0,0.2,0.1,0.3,0.1
				c0.1,0,0.1,0.1,0.2,0.1c0.1,0.1,0.2,0.1,0.3,0.2c0,0,0.1,0,0.1,0.1c1.4,0.9,2.3,2.5,2.3,4.3c0,1.6-0.7,3-1.9,4
				C57.5,46.9,57.4,46.9,57.4,46.9z"/>
		</g>
	</g>
</g>
</svg>
