<?xml version="1.0" encoding="UTF-8" standalone="no"?>
<!-- Generator: Adobe Illustrator 19.2.1, SVG Export Plug-In . SVG Version: 6.00 Build 0)  -->

<svg
   xmlns:dc="http://purl.org/dc/elements/1.1/"
   xmlns:cc="http://creativecommons.org/ns#"
   xmlns:rdf="http://www.w3.org/1999/02/22-rdf-syntax-ns#"
   xmlns:svg="http://www.w3.org/2000/svg"
   xmlns="http://www.w3.org/2000/svg"
   xmlns:sodipodi="http://sodipodi.sourceforge.net/DTD/sodipodi-0.dtd"
   xmlns:inkscape="http://www.inkscape.org/namespaces/inkscape"
   version="1.1"
   id="Layer_1"
   x="0px"
   y="0px"
   viewBox="0 0 183.1 178.4"
   style="enable-background:new 0 0 183.1 178.4;"
   xml:space="preserve"
   sodipodi:docname="logo.svg"
   inkscape:version="0.92.3 (2405546, 2018-03-11)"><metadata
   id="metadata4924"><rdf:RDF><cc:Work
       rdf:about=""><dc:format>image/svg+xml</dc:format><dc:type
         rdf:resource="http://purl.org/dc/dcmitype/StillImage" /></cc:Work></rdf:RDF></metadata><defs
   id="defs4922" /><sodipodi:namedview
   pagecolor="#ffffff"
   bordercolor="#666666"
   borderopacity="1"
   objecttolerance="10"
   gridtolerance="10"
   guidetolerance="10"
   inkscape:pageopacity="0"
   inkscape:pageshadow="2"
   inkscape:window-width="1869"
   inkscape:window-height="1019"
   id="namedview4920"
   showgrid="false"
   inkscape:zoom="1.32287"
   inkscape:cx="91.550003"
   inkscape:cy="89.199997"
   inkscape:window-x="51"
   inkscape:window-y="27"
   inkscape:window-maximized="1"
   inkscape:current-layer="Layer_1" />
<style
   type="text/css"
   id="style4871">
	.st0{fill:#E8445F;}
	.st1{fill:#FFFFFF;}
	.st2{fill:#C8445F;}
</style>
<g
   id="g4893"
   style="fill:#000000;fill-opacity:1">
	<g
   id="g4891"
   style="fill:#000000;fill-opacity:1">
		<g
   id="g4889"
   style="fill:#000000;fill-opacity:1">
			<path
   class="st0"
   d="M14.8,142.3h1.5l10.5,24.8H25l-3.5-8.2H9.7l-3.5,8.2H4.3L14.8,142.3z M21,157.5l-5.4-13l-5.5,13H21z"
   id="path4873"
   style="fill:#000000;fill-opacity:1" />
			<path
   class="st0"
   d="M30.6,167.1v-24.8h1.8v23.2h14.8v1.6H30.6z"
   id="path4875"
   style="fill:#000000;fill-opacity:1" />
			<path
   class="st0"
   d="M50.9,167.1v-24.8h1.8v23.2h14.8v1.6H50.9z"
   id="path4877"
   style="fill:#000000;fill-opacity:1" />
			<path
   class="st0"
   d="M71.2,167.1v-24.8H73v24.8H71.2z"
   id="path4879"
   style="fill:#000000;fill-opacity:1" />
			<path
   class="st0"
   d="M87.3,142.3h1.5l10.5,24.8h-1.9L94,159H82.1l-3.5,8.2h-1.9L87.3,142.3z M93.5,157.5l-5.4-13l-5.5,13H93.5z"
   id="path4881"
   style="fill:#000000;fill-opacity:1" />
			<path
   class="st0"
   d="M104.9,145.7v21.5h-1.8v-24.8h1.4l17.4,21.8v-21.8h1.8v24.8H122L104.9,145.7z"
   id="path4883"
   style="fill:#000000;fill-opacity:1" />
			<path
   class="st0"
   d="M128.4,154.6c0-1.5,0.3-3,0.8-4.5c0.5-1.5,1.3-2.8,2.3-4c1-1.2,2.2-2.1,3.7-2.8c1.5-0.7,3.1-1.1,5-1.1     c2.2,0,4.1,0.5,5.7,1.5c1.6,1,2.7,2.3,3.5,3.9l-1.5,0.8c-0.4-0.9-1-1.6-1.6-2.2c-0.6-0.6-1.2-1.1-1.9-1.4     c-0.7-0.4-1.4-0.6-2.1-0.8c-0.7-0.2-1.5-0.2-2.2-0.2c-1.6,0-3,0.3-4.2,1c-1.2,0.6-2.2,1.5-3.1,2.5c-0.8,1-1.5,2.2-1.9,3.5     c-0.4,1.3-0.6,2.6-0.6,3.9c0,1.5,0.3,2.9,0.8,4.2c0.5,1.3,1.2,2.5,2.1,3.5c0.9,1,1.9,1.8,3.1,2.4c1.2,0.6,2.5,0.9,3.9,0.9     c0.7,0,1.5-0.1,2.3-0.3c0.8-0.2,1.5-0.5,2.3-0.9c0.7-0.4,1.4-0.9,2-1.5c0.6-0.6,1.2-1.3,1.6-2.2l1.5,0.7c-0.4,0.9-1,1.8-1.7,2.5     c-0.7,0.7-1.5,1.3-2.4,1.8c-0.9,0.5-1.8,0.9-2.8,1.1c-1,0.2-2,0.4-2.9,0.4c-1.7,0-3.3-0.4-4.7-1.1c-1.4-0.7-2.6-1.7-3.7-2.9     c-1-1.2-1.8-2.6-2.4-4.1C128.7,157.7,128.4,156.1,128.4,154.6z"
   id="path4885"
   style="fill:#000000;fill-opacity:1" />
			<path
   class="st0"
   d="M170.8,165.5v1.6h-16.5v-24.8h16.2v1.6H156v9.7h12.6v1.5H156v10.3H170.8z"
   id="path4887"
   style="fill:#000000;fill-opacity:1" />
		</g>
	</g>
</g>
<path
   class="st0"
   d="M63.3,19.9c-2.5,0-4.5,2-4.5,4.5v39.9c0,2.5,2,4.5,4.5,4.5c2.5,0,4.5-2,4.5-4.5V24.3  C67.8,21.9,65.8,19.9,63.3,19.9z"
   id="path4895"
   style="fill:#000000;fill-opacity:1" />
<g
   id="g4909"
   style="fill:#000000;fill-opacity:1">
	<path
   class="st0"
   d="M75.2,127.4H50.5c-2.4,0-4.3-1.9-4.3-4.3c0-2.4,1.9-4.3,4.3-4.3h24.6c2.4,0,4.3,1.9,4.3,4.3   C79.5,125.5,77.5,127.4,75.2,127.4z"
   id="path4897"
   style="fill:#000000;fill-opacity:1" />
	<path
   class="st0"
   d="M75.2,108.3H50.5c-2.4,0-4.3-1.9-4.3-4.3s1.9-4.3,4.3-4.3h24.6c2.4,0,4.3,1.9,4.3,4.3S77.5,108.3,75.2,108.3z"
   id="path4899"
   style="fill:#000000;fill-opacity:1" />
	<path
   class="st0"
   d="M118.6,115c-2.7,2.5-6.3,3.8-9.9,3.8c-8.2,0-14.8-6.7-14.8-14.8s6.7-14.8,14.8-14.8c3.5,0,6.9,1.2,9.5,3.4   c1.8,1.5,4.5,1.3,6-0.5c1.5-1.8,1.3-4.5-0.5-6c-4.2-3.5-9.5-5.4-15-5.4c-12.9,0-23.4,10.5-23.4,23.4s10.5,23.4,23.4,23.4   c5.8,0,11.4-2.1,15.7-6c1.8-1.6,1.9-4.3,0.3-6C123.1,113.6,120.4,113.4,118.6,115z"
   id="path4901"
   style="fill:#000000;fill-opacity:1" />
	<path
   class="st0"
   d="M37.5,80.6H7.5c-2.4,0-4.3,1.9-4.3,4.3s1.9,4.3,4.3,4.3h10.7V123c0,2.4,1.9,4.3,4.3,4.3s4.3-1.9,4.3-4.3V89.1   h10.7c2.4,0,4.3-1.9,4.3-4.3S39.8,80.6,37.5,80.6z"
   id="path4903"
   style="fill:#000000;fill-opacity:1" />
	<path
   class="st0"
   d="M75.2,80.7H50.5c-2.4,0-4.3,1.9-4.3,4.3s1.9,4.3,4.3,4.3h24.6c2.4,0,4.3-1.9,4.3-4.3S77.5,80.7,75.2,80.7z"
   id="path4905"
   style="fill:#000000;fill-opacity:1" />
	<path
   class="st0"
   d="M166.5,80.6c-2.4,0-4.3,1.9-4.3,4.3v14.8h-21.5V84.9c0-2.4-1.9-4.3-4.3-4.3c-2.4,0-4.3,1.9-4.3,4.3V123   c0,2.4,1.9,4.3,4.3,4.3c2.4,0,4.3-1.9,4.3-4.3v-14.8h21.5V123c0,2.4,1.9,4.3,4.3,4.3c2.4,0,4.3-1.9,4.3-4.3V84.9   C170.8,82.5,168.8,80.6,166.5,80.6z"
   id="path4907"
   style="fill:#000000;fill-opacity:1" />
</g>
<path
   class="st0"
   d="M117.5,44.4c0-0.3,0-0.6-0.1-0.9c-0.1-0.6-0.3-1.1-0.7-1.6c0,0,0,0,0,0c-0.1-0.2-0.2-0.3-0.4-0.4  c-0.1-0.1-0.1-0.2-0.2-0.2c-0.1-0.1-0.1-0.1-0.2-0.2c-0.1-0.1-0.3-0.3-0.4-0.4c0,0,0,0,0,0c-0.5-0.3-1-0.5-1.6-0.7  c-0.3-0.1-0.6-0.1-0.9-0.1H97.8c-2.5,0-4.5,2-4.5,4.5c0,2.5,2,4.5,4.5,4.5h10.8V57c-2.6,1.8-5.7,2.8-8.9,2.8  c-8.6,0-15.5-7-15.5-15.5s7-15.5,15.5-15.5c3.6,0,7.2,1.3,10,3.6c1.9,1.6,4.7,1.3,6.3-0.6c1.6-1.9,1.3-4.7-0.6-6.3  c-4.4-3.7-10-5.7-15.7-5.7c-13.5,0-24.5,11-24.5,24.5c0,13.5,11,24.5,24.5,24.5c6.1,0,11.9-2.2,16.4-6.3c1-0.9,1.5-2.1,1.5-3.3  c0,0,0-0.1,0-0.1V44.4z"
   id="path4911"
   style="fill:#000000;fill-opacity:1" />
<g
   id="g4915"
   style="fill:#000000;fill-opacity:1">
	<path
   class="st0"
   d="M126.8,41.4c-0.5,0-1,0-1.5,0c-1.5-0.1-2.4-1.6-2-3c2.1-7.9,8-14.2,15.7-17c1.4-0.5,2.8,0.3,3.1,1.8   c0.5,2.7,1.5,5.2,2.8,7.5c0.5,0.9,0.3,1.9-0.3,2.7C140.3,38.2,133.9,41.4,126.8,41.4z M168.2,41.4c0.6,0,1.2,0,1.8-0.1   c1.2-0.1,2.1-1.3,1.8-2.5c-2.5-9.9-10.9-17.4-21.2-18.7l0.2,0c-3-0.4-2.2-9.2-1.6-13.5c0.2-1.2-0.8-2.3-2-2.3c0,0,0,0-0.1,0   c-1.1,0-2,0.8-2.1,1.9c-0.7,10.7-0.4,13.9-0.4,13.9C145.9,31.9,156,41.4,168.2,41.4z M146.2,36.1c-1.8,1.9-3.9,3.6-6.2,4.9   c-1,0.6-1.2,1.9-0.5,2.8c2.1,2.3,4.4,4.3,6.9,6.1c0.6,0.4,1.4,0.4,2,0c2.6-1.8,4.9-3.8,6.9-6.1c0.8-0.9,0.6-2.2-0.5-2.8   c-2.3-1.3-4.4-3-6.2-4.9C148.1,35.3,147,35.3,146.2,36.1z M135.9,44.2c-0.5-0.6-1.4-0.9-2.2-0.7c-2.2,0.6-4.5,0.9-6.9,0.9   c-0.2,0-0.4,0-0.6,0c0,0.2,0,0.3,0,0.5c0,3.8,1,7.4,2.7,10.5c0.4,0.7,1.2,1.2,2,1.1c3.7-0.4,7.2-1.4,10.5-2.7   c1.4-0.6,1.6-2.5,0.4-3.4C139.7,48.5,137.7,46.4,135.9,44.2z M168.2,44.5c-2.5,0-5-0.4-7.3-1c-0.5-0.2-1.1,0-1.4,0.5   c-2.1,2.6-4.5,5-7.2,7.1c-0.8,0.6-0.6,1.9,0.3,2.3c3.7,1.7,7.7,2.8,11.9,3.2c0.5,0.1,1-0.2,1.3-0.6c1.9-3.2,3-6.9,3-10.9   c0-0.2,0-0.3,0-0.5C168.6,44.4,168.4,44.5,168.2,44.5z M136.8,61.4c2.5,4.2,5.6,7.9,9.3,11.1c0.8,0.7,2,0.7,2.8,0   c3.7-3.2,6.8-6.9,9.3-11.1c0.7-1.2,0.1-2.8-1.3-3.2c-2.9-0.8-5.7-2-8.3-3.4c-0.7-0.4-1.4-0.4-2.1,0c-2.6,1.4-5.5,2.6-8.4,3.4   C136.7,58.6,136.1,60.2,136.8,61.4z"
   id="path4913"
   style="fill:#000000;fill-opacity:1" />
</g>
<path
   class="st0"
   d="M47.4,20.3c-2.2-1-4.9-0.1-5.9,2.2L27.1,53.6L12.8,22.5c-1-2.2-3.7-3.2-5.9-2.2c-2.2,1-3.2,3.7-2.2,5.9  l18.4,39.9c0,0,0.1,0.1,0.1,0.1c0.2,0.3,0.3,0.6,0.6,0.9c0,0,0,0.1,0.1,0.1c0.2,0.3,0.5,0.5,0.9,0.7c0.1,0.1,0.2,0.1,0.3,0.2  c0.1,0.1,0.2,0.1,0.3,0.2c0.1,0.1,0.3,0.1,0.4,0.1c0.1,0,0.2,0.1,0.3,0.1c0.4,0.1,0.7,0.2,1.1,0.2c0,0,0,0,0,0l0,0  c0.4,0,0.7-0.1,1.1-0.2c0.1,0,0.2-0.1,0.3-0.1c0.1,0,0.3-0.1,0.4-0.1c0.1-0.1,0.2-0.1,0.3-0.2c0.1-0.1,0.2-0.1,0.3-0.2  c0.3-0.2,0.6-0.4,0.9-0.7c0,0,0-0.1,0.1-0.1c0.2-0.3,0.4-0.6,0.6-0.9c0,0,0.1-0.1,0.1-0.1l18.4-39.9C50.6,24,49.6,21.3,47.4,20.3z"
   id="path4917"
   style="fill:#000000;fill-opacity:1" />
</svg>