
<?xml version="1.0" encoding="utf-8"?>
<svg version="1.1" id="Layer_1" xmlns="http://www.w3.org/2000/svg" xmlns:xlink="http://www.w3.org/1999/xlink" x="0px" y="0px"
	 viewBox="0 0 696 79.3" style="enable-background:new 0 0 696 79.3;" xml:space="preserve">
<style type="text/css">
	.st1{fill:currentColor;}
</style>
<g>
	<g>
		<g>
			<g>
				<path class="st1" d="M392,19.9h2.9l20,47.3h-3.6l-6.6-15.6h-22.6l-6.6,15.6h-3.7L392,19.9z M403.8,48.8l-10.3-24.8l-10.5,24.8
					H403.8z"/>
				<path class="st1" d="M422.1,67.2V19.9h3.4v44.2h28.2v3.1H422.1z"/>
				<path class="st1" d="M460.7,67.2V19.9h3.4v44.2h28.2v3.1H460.7z"/>
				<path class="st1" d="M499.4,67.2V19.9h3.4v47.3H499.4z"/>
				<path class="st1" d="M530,19.9h2.9l20,47.3h-3.6l-6.6-15.6h-22.6l-6.6,15.6h-3.7L530,19.9z M541.8,48.8l-10.3-24.8L521,48.8
					H541.8z"/>
				<path class="st1" d="M563.5,26.3v40.9h-3.4V19.9h2.6l33.1,41.6V19.9h3.4v47.3h-3.1L563.5,26.3z"/>
				<path class="st1" d="M608.3,43.2c0-2.8,0.5-5.7,1.5-8.5c1-2.8,2.5-5.3,4.4-7.6c1.9-2.2,4.2-4,7-5.4c2.8-1.4,5.9-2.1,9.5-2.1
					c4.2,0,7.8,1,10.8,2.9c3,1.9,5.2,4.4,6.7,7.4l-2.8,1.6c-0.8-1.6-1.8-3-3-4.1c-1.1-1.1-2.4-2-3.7-2.7c-1.3-0.7-2.7-1.2-4.1-1.5
					c-1.4-0.3-2.8-0.5-4.2-0.5c-3,0-5.7,0.6-8,1.8c-2.3,1.2-4.3,2.8-5.9,4.8c-1.6,2-2.8,4.2-3.6,6.6c-0.8,2.5-1.2,4.9-1.2,7.4
					c0,2.8,0.5,5.5,1.5,8c1,2.5,2.3,4.8,4,6.7c1.7,1.9,3.7,3.5,6,4.6c2.3,1.2,4.8,1.7,7.5,1.7c1.4,0,2.9-0.2,4.4-0.5
					c1.5-0.4,2.9-0.9,4.3-1.7c1.4-0.8,2.7-1.7,3.9-2.9c1.2-1.2,2.2-2.6,3-4.2l2.9,1.4c-0.8,1.8-1.9,3.3-3.3,4.7
					c-1.4,1.4-2.9,2.5-4.6,3.5c-1.7,0.9-3.5,1.6-5.4,2.1c-1.9,0.5-3.7,0.7-5.6,0.7c-3.2,0-6.2-0.7-8.9-2.1c-2.7-1.4-5-3.3-7-5.6
					c-2-2.3-3.5-4.9-4.6-7.8C608.8,49.2,608.3,46.2,608.3,43.2z"/>
				<path class="st1" d="M688.9,64.1v3.1h-31.5V19.9h30.9V23h-27.5v18.6h24v2.9h-24v19.6H688.9z"/>
			</g>
		</g>
	</g>
	<path class="st1" d="M252.8,68.9h-25.8c-2.5,0-4.5-2-4.5-4.5c0-2.5,2-4.5,4.5-4.5h25.8c2.5,0,4.5,2,4.5,4.5
		C257.3,66.9,255.3,68.9,252.8,68.9z"/>
	<path class="st1" d="M252.8,48.9h-25.8c-2.5,0-4.5-2-4.5-4.5c0-2.5,2-4.5,4.5-4.5h25.8c2.5,0,4.5,2,4.5,4.5
		C257.3,46.9,255.3,48.9,252.8,48.9z"/>
	<path class="st1" d="M298.3,56c-2.9,2.6-6.5,4-10.4,4c-8.6,0-15.5-7-15.5-15.5s7-15.5,15.5-15.5c3.6,0,7.2,1.3,10,3.6
		c1.9,1.6,4.7,1.3,6.3-0.6c1.6-1.9,1.3-4.7-0.6-6.3c-4.4-3.7-10-5.7-15.7-5.7c-13.5,0-24.5,11-24.5,24.5s11,24.5,24.5,24.5
		c6.1,0,11.9-2.2,16.4-6.3c1.8-1.7,2-4.5,0.3-6.3C302.9,54.5,300.1,54.3,298.3,56z"/>
	<path class="st1" d="M65.7,20c-2.5,0-4.5,2-4.5,4.5v39.9c0,2.5,2,4.5,4.5,4.5s4.5-2,4.5-4.5V24.4C70.1,22,68.1,20,65.7,20z"/>
	<path class="st1" d="M49.7,20.4c-2.2-1-4.9-0.1-5.9,2.2L29.5,53.7L15.1,22.6c-1-2.2-3.7-3.2-5.9-2.2C7,21.4,6,24.1,7,26.3
		l18.4,39.9c0,0,0.1,0.1,0.1,0.1c0.2,0.3,0.3,0.6,0.6,0.9c0,0,0,0.1,0.1,0.1c0.2,0.3,0.5,0.5,0.9,0.7c0.1,0.1,0.2,0.1,0.3,0.2
		c0.1,0.1,0.2,0.1,0.3,0.2c0.1,0.1,0.3,0.1,0.4,0.1c0.1,0,0.2,0.1,0.3,0.1c0.4,0.1,0.7,0.2,1.1,0.2l0,0l0,0c0.4,0,0.7-0.1,1.1-0.2
		c0.1,0,0.2-0.1,0.3-0.1c0.1,0,0.3-0.1,0.4-0.1c0.1-0.1,0.2-0.1,0.3-0.2c0.1-0.1,0.2-0.1,0.3-0.2c0.3-0.2,0.6-0.4,0.9-0.7
		c0,0,0-0.1,0.1-0.1c0.2-0.3,0.4-0.6,0.6-0.9c0,0,0.1-0.1,0.1-0.1l18.4-39.9C52.9,24.1,51.9,21.4,49.7,20.4z"/>
	<path class="st1" d="M213.4,20h-31.3c-2.5,0-4.5,2-4.5,4.5s2,4.5,4.5,4.5h11.2v35.4c0,2.5,2,4.5,4.5,4.5s4.5-2,4.5-4.5V28.9h11.2
		c2.5,0,4.5-2,4.5-4.5S215.8,20,213.4,20z"/>
	<path class="st1" d="M252.8,20.1h-25.8c-2.5,0-4.5,2-4.5,4.5s2,4.5,4.5,4.5h25.8c2.5,0,4.5-2,4.5-4.5S255.3,20.1,252.8,20.1z"/>
	<path class="st1" d="M348.4,20c-2.5,0-4.5,2-4.5,4.5v15.5h-22.5V24.4c0-2.5-2-4.5-4.5-4.5s-4.5,2-4.5,4.5v39.9c0,2.5,2,4.5,4.5,4.5
		s4.5-2,4.5-4.5V48.8h22.5v15.5c0,2.5,2,4.5,4.5,4.5c2.5,0,4.5-2,4.5-4.5V24.4C352.8,22,350.8,20,348.4,20z"/>
	<path class="st1" d="M119.9,44.9c0-0.3,0-0.6-0.1-0.9c-0.1-0.6-0.3-1.1-0.7-1.6c0,0,0,0,0,0c-0.1-0.2-0.2-0.3-0.4-0.4
		c-0.1-0.1-0.1-0.2-0.2-0.2c-0.1-0.1-0.1-0.1-0.2-0.2c-0.1-0.1-0.3-0.3-0.4-0.4c0,0,0,0,0,0c-0.5-0.3-1-0.5-1.6-0.7
		c-0.3-0.1-0.6-0.1-0.9-0.1h-15.3c-2.5,0-4.5,2-4.5,4.5c0,2.5,2,4.5,4.5,4.5h10.8v8.2c-2.6,1.8-5.7,2.8-8.9,2.8
		c-8.6,0-15.5-7-15.5-15.5s7-15.5,15.5-15.5c3.6,0,7.2,1.3,10,3.6c1.9,1.6,4.7,1.3,6.3-0.6c1.6-1.9,1.3-4.7-0.6-6.3
		c-4.4-3.7-10-5.7-15.7-5.7c-13.5,0-24.5,11-24.5,24.5c0,13.5,11,24.5,24.5,24.5c6.1,0,11.9-2.2,16.4-6.3c1-0.9,1.5-2.1,1.5-3.3
		c0,0,0-0.1,0-0.1V44.9z"/>
	<g>
		<path class="st1" d="M129.2,41.4c-0.5,0-1,0-1.5,0c-1.5-0.1-2.4-1.6-2-3c2.1-7.9,8-14.2,15.7-17c1.4-0.5,2.8,0.3,3.1,1.8
			c0.5,2.7,1.5,5.2,2.8,7.5c0.5,0.9,0.3,1.9-0.3,2.7C142.6,38.3,136.2,41.4,129.2,41.4z M170.6,41.4c0.6,0,1.2,0,1.8-0.1
			c1.2-0.1,2.1-1.3,1.8-2.5c-2.5-9.9-10.9-17.4-21.2-18.7l0.2,0c-3-0.4-2.2-9.2-1.6-13.5c0.2-1.2-0.8-2.3-2-2.3c0,0,0,0-0.1,0
			c-1.1,0-2,0.8-2.1,1.9c-0.7,10.7-0.4,13.9-0.4,13.9C148.2,32,158.3,41.4,170.6,41.4z M148.6,36.2c-1.8,1.9-3.9,3.6-6.2,4.9
			c-1,0.6-1.2,1.9-0.5,2.8c2.1,2.3,4.4,4.3,6.9,6.1c0.6,0.4,1.4,0.4,2,0c2.5-1.8,4.9-3.8,6.9-6.1c0.8-0.9,0.6-2.2-0.5-2.8
			c-2.3-1.3-4.4-3-6.2-4.9C150.5,35.4,149.3,35.4,148.6,36.2z M138.2,44.3c-0.5-0.6-1.4-0.9-2.2-0.7c-2.2,0.6-4.5,0.9-6.9,0.9
			c-0.2,0-0.4,0-0.6,0c0,0.2,0,0.3,0,0.5c0,3.8,1,7.4,2.7,10.5c0.4,0.7,1.2,1.2,2,1.1c3.7-0.4,7.2-1.4,10.5-2.7
			c1.4-0.6,1.6-2.5,0.4-3.4C142,48.6,140,46.5,138.2,44.3z M170.6,44.5c-2.5,0-5-0.4-7.3-1c-0.5-0.2-1.1,0-1.4,0.5
			c-2.1,2.6-4.5,5-7.2,7.1c-0.8,0.6-0.6,1.9,0.3,2.3c3.7,1.7,7.7,2.8,11.9,3.2c0.5,0.1,1-0.2,1.3-0.6c1.9-3.2,3-6.9,3-10.9
			c0-0.2,0-0.3,0-0.5C170.9,44.5,170.8,44.5,170.6,44.5z M139.1,61.5c2.5,4.2,5.6,7.9,9.3,11.1c0.8,0.7,2,0.7,2.8,0
			c3.7-3.2,6.8-6.9,9.3-11.1c0.7-1.2,0.1-2.8-1.3-3.2c-2.9-0.8-5.7-2-8.3-3.4c-0.7-0.4-1.4-0.4-2.1,0c-2.6,1.4-5.5,2.6-8.4,3.4
			C139,58.7,138.4,60.3,139.1,61.5z"/>
	</g>
</g>
</svg>
